<svg xmlns="http://www.w3.org/2000/svg" width="375" viewBox="0 0 375 375" height="375" version="1.0"><defs><clipPath id="a"><path d="M 50.863281 37.5 L 323.863281 37.5 L 323.863281 311 L 50.863281 311 Z M 50.863281 37.5"/></clipPath><clipPath id="b"><path d="M 107 235 L 268 235 L 268 337.5 L 107 337.5 Z M 107 235"/></clipPath></defs><g clip-path="url(#a)"><path fill="#7640A3" d="M 50.933594 174.148438 C 50.933594 249.597656 112.035156 310.753906 187.40625 310.753906 C 262.777344 310.753906 323.875 249.597656 323.875 174.148438 C 323.875 98.699219 262.777344 37.542969 187.40625 37.542969 C 112.03125 37.539062 50.933594 98.699219 50.933594 174.148438"/></g><path fill="#FAC565" d="M 243.375 157.101562 C 243.375 157.101562 245.019531 181.769531 265.1875 184.28125 C 265.1875 184.28125 259.703125 196.066406 247.800781 200.285156 C 247.800781 200.285156 249.625 206.183594 257.011719 205.835938 C 257.011719 205.835938 232.601562 229.292969 203.300781 221.464844 C 172.582031 213.253906 243.375 157.101562 243.375 157.101562"/><g clip-path="url(#b)"><path fill="#FFF" d="M 267.03125 311.128906 C 260.277344 316.171875 253.03125 320.589844 245.375 324.289062 C 244.210938 324.851562 243.046875 325.390625 241.863281 325.921875 C 225.242188 333.386719 206.8125 337.535156 187.40625 337.535156 C 168.003906 337.535156 149.582031 333.386719 132.957031 325.921875 C 131.769531 325.390625 130.59375 324.851562 129.4375 324.289062 C 121.785156 320.582031 114.535156 316.171875 107.792969 311.128906 C 108.976562 284.71875 122.992188 261.652344 143.75 248.03125 C 156.289062 239.792969 171.289062 235.007812 187.40625 235.007812 C 189.867188 235.007812 192.300781 235.121094 194.6875 235.339844 C 208.042969 236.550781 220.4375 241.046875 231.0625 248.03125 C 240.621094 254.300781 248.746094 262.574219 254.847656 272.246094 C 262.007812 283.597656 266.378906 296.878906 267.03125 311.128906"/></g><path fill="#FBD5C0" d="M 231.0625 248.03125 C 229.847656 257.242188 225.789062 265.566406 219.785156 272.074219 C 211.738281 280.796875 200.214844 286.269531 187.40625 286.269531 C 166.890625 286.269531 149.652344 272.21875 144.757812 253.207031 C 144.324219 251.519531 143.984375 249.789062 143.75 248.03125 C 156.289062 239.792969 171.289062 235.007812 187.40625 235.007812 C 189.867188 235.007812 192.300781 235.113281 194.699219 235.339844 C 195.113281 235.375 195.53125 235.417969 195.941406 235.460938 C 196.199219 235.488281 196.460938 235.515625 196.714844 235.546875 C 197 235.574219 197.289062 235.617188 197.566406 235.652344 C 197.738281 235.671875 197.921875 235.695312 198.09375 235.722656 C 198.347656 235.75 198.609375 235.792969 198.867188 235.828125 C 199.070312 235.851562 199.269531 235.886719 199.476562 235.914062 C 199.652344 235.941406 199.824219 235.964844 200 236 C 200.292969 236.042969 200.582031 236.097656 200.875 236.140625 C 202.144531 236.359375 203.40625 236.601562 204.648438 236.878906 L 205.480469 237.0625 C 205.636719 237.105469 205.804688 237.140625 205.960938 237.183594 C 206.253906 237.253906 206.558594 237.324219 206.84375 237.402344 C 206.898438 237.410156 206.941406 237.417969 206.976562 237.425781 C 207.351562 237.523438 207.722656 237.617188 208.089844 237.722656 C 208.488281 237.820312 208.878906 237.933594 209.261719 238.046875 C 209.703125 238.167969 210.140625 238.296875 210.582031 238.429688 C 210.921875 238.53125 211.261719 238.636719 211.597656 238.75 C 211.816406 238.820312 212.042969 238.890625 212.25 238.957031 C 212.605469 239.070312 212.964844 239.191406 213.3125 239.316406 C 213.746094 239.460938 214.171875 239.609375 214.597656 239.765625 C 214.632812 239.785156 214.65625 239.792969 214.683594 239.800781 C 215.125 239.957031 215.5625 240.125 215.996094 240.289062 C 216.316406 240.417969 216.648438 240.542969 216.976562 240.679688 C 217.839844 241.019531 218.679688 241.375 219.515625 241.742188 L 220.609375 242.238281 C 220.941406 242.386719 221.269531 242.542969 221.601562 242.699219 C 221.90625 242.847656 222.199219 242.984375 222.496094 243.132812 C 222.773438 243.265625 223.042969 243.402344 223.3125 243.542969 C 223.484375 243.628906 223.667969 243.714844 223.84375 243.8125 C 224.5625 244.175781 225.269531 244.558594 225.960938 244.941406 C 226.214844 245.082031 226.476562 245.230469 226.71875 245.367188 C 226.882812 245.464844 227.039062 245.550781 227.195312 245.636719 L 227.789062 245.988281 L 228.386719 246.351562 L 228.777344 246.585938 C 229.152344 246.804688 229.515625 247.03125 229.882812 247.265625 C 230.28125 247.515625 230.671875 247.769531 231.0625 248.03125"/><path fill="#FBD5C0" d="M 206.8125 213.132812 L 206.8125 251.34375 C 206.8125 261.007812 198.910156 268.921875 189.257812 268.921875 L 185.554688 268.921875 C 175.902344 268.921875 168.011719 261.007812 168.011719 251.34375 L 168.011719 213.132812 C 168.011719 203.46875 175.902344 195.570312 185.554688 195.570312 L 189.257812 195.570312 C 198.910156 195.570312 206.8125 203.46875 206.8125 213.132812"/><path fill="#F8A29E" d="M 206.8125 213.132812 L 206.8125 233.355469 C 201.042969 236.566406 194.921875 238.429688 188.710938 238.429688 C 181.386719 238.429688 174.398438 236.390625 168.011719 232.835938 L 168.011719 213.132812 C 168.011719 203.46875 175.902344 195.570312 185.554688 195.570312 L 189.257812 195.570312 C 198.910156 195.570312 206.8125 203.46875 206.8125 213.132812"/><path fill="#FBD5C0" d="M 234.722656 198.398438 C 234.722656 198.398438 243.8125 195.300781 249.617188 185.160156 C 255.925781 174.148438 251.960938 167.285156 250.710938 165.796875 C 247.296875 161.734375 242.019531 164.34375 241.152344 165.796875 C 240.285156 167.25 227.699219 190.125 234.722656 198.398438"/><path fill="#F8A29E" d="M 243.628906 169.40625 C 243.628906 169.40625 249.398438 170.148438 247.375 178.261719 C 245.339844 186.386719 240.015625 189.597656 232.765625 193.746094 C 225.527344 197.894531 236.390625 171.058594 243.628906 169.40625"/><path fill="#FBD5C0" d="M 142.457031 198.398438 C 142.457031 198.398438 133.367188 195.300781 127.5625 185.160156 C 121.246094 174.148438 125.207031 167.285156 126.457031 165.796875 C 129.875 161.734375 135.148438 164.34375 136.015625 165.796875 C 136.886719 167.25 149.476562 190.125 142.457031 198.398438"/><path fill="#F8A29E" d="M 133.539062 169.40625 C 133.539062 169.40625 127.777344 170.148438 129.804688 178.261719 C 131.828125 186.386719 137.164062 189.597656 144.402344 193.746094 C 151.648438 197.894531 140.789062 171.058594 133.539062 169.40625"/><path fill="#FBD5C0" d="M 243.628906 164.050781 C 243.628906 130.710938 219.046875 103.675781 188.710938 103.675781 C 158.382812 103.675781 133.785156 130.710938 133.785156 164.050781 C 133.785156 197.390625 158.382812 232.242188 188.710938 232.242188 C 217.210938 232.242188 243.628906 197.113281 243.628906 164.050781"/><path fill="#FAC565" d="M 193.65625 139.703125 C 193.65625 139.703125 214.242188 177.445312 253.101562 174.148438 C 253.101562 174.148438 258.582031 157.101562 253.101562 137.144531 C 246.679688 113.808594 223.453125 94.1875 188.710938 101.429688 C 188.710938 101.429688 185.539062 118.539062 193.65625 139.703125"/><path fill="#FAC565" d="M 177.335938 115.347656 C 177.335938 115.347656 163.421875 146.226562 195.574219 164.050781 C 195.574219 164.050781 182.113281 138.503906 192.925781 118.316406 L 177.335938 115.347656"/><path fill="#FAC565" d="M 185.488281 102.902344 C 185.488281 102.902344 208.503906 78.078125 237.398438 100.8125 C 237.398438 100.8125 208.652344 98.316406 194.273438 116.132812 L 185.488281 102.902344"/><path fill="#FAC565" d="M 195.394531 103.675781 C 195.394531 103.675781 196.835938 97.378906 191.621094 92.445312 C 186.40625 87.515625 117.378906 97.640625 133.785156 164.050781 C 133.785156 164.050781 149.875 124.332031 192.492188 120.855469 L 195.394531 103.675781"/></svg>