<svg xmlns="http://www.w3.org/2000/svg" width="375" viewBox="0 0 375 375" height="375" version="1.0"><defs><clipPath id="a"><path d="M 106 235 L 266 235 L 266 337.5 L 106 337.5 Z M 106 235"/></clipPath></defs><path fill="#EEC124" d="M 188.859375 38.292969 C 113.703125 37.527344 52.152344 97.84375 51.378906 173.019531 C 50.613281 248.195312 110.921875 309.761719 186.078125 310.523438 C 261.246094 311.292969 322.789062 250.976562 323.5625 175.804688 C 324.332031 100.621094 264.027344 39.054688 188.859375 38.285156"/><g clip-path="url(#a)"><path fill="#FFF" d="M 265.476562 311.714844 C 258.6875 316.671875 251.417969 320.996094 243.75 324.605469 C 242.589844 325.160156 241.410156 325.6875 240.230469 326.199219 C 223.574219 333.460938 205.152344 337.414062 185.8125 337.214844 C 166.460938 337.015625 148.132812 332.691406 131.625 325.089844 C 130.453125 324.550781 129.285156 323.996094 128.140625 323.425781 C 120.539062 319.65625 113.355469 315.183594 106.683594 310.09375 C 108.132812 283.789062 122.351562 260.949219 143.183594 247.582031 C 155.773438 239.503906 170.785156 234.894531 186.851562 235.050781 C 189.304688 235.078125 191.730469 235.214844 194.121094 235.457031 C 207.414062 236.792969 219.726562 241.414062 230.257812 248.476562 C 239.71875 254.820312 247.734375 263.152344 253.722656 272.847656 C 260.75 284.230469 264.980469 297.507812 265.476562 311.714844"/></g><path fill="#BA5C21" d="M 230.25 248.476562 C 228.949219 257.636719 224.816406 265.898438 218.757812 272.3125 C 210.648438 280.925781 199.105469 286.257812 186.332031 286.128906 C 165.871094 285.921875 148.824219 271.75 144.136719 252.75 C 143.722656 251.066406 143.402344 249.34375 143.183594 247.582031 C 155.773438 239.503906 170.777344 234.894531 186.851562 235.058594 C 189.304688 235.085938 191.730469 235.214844 194.121094 235.457031 C 194.539062 235.5 194.953125 235.542969 195.359375 235.597656 C 195.621094 235.621094 195.871094 235.648438 196.121094 235.691406 C 196.410156 235.71875 196.695312 235.761719 196.972656 235.804688 C 197.144531 235.820312 197.328125 235.847656 197.5 235.875 C 197.753906 235.910156 198.011719 235.953125 198.273438 235.988281 C 198.472656 236.019531 198.671875 236.054688 198.878906 236.082031 C 199.050781 236.109375 199.226562 236.132812 199.398438 236.175781 C 199.691406 236.21875 199.980469 236.273438 200.273438 236.316406 C 201.53125 236.550781 202.785156 236.808594 204.027344 237.097656 C 204.304688 237.15625 204.582031 237.226562 204.859375 237.285156 C 205.015625 237.328125 205.171875 237.363281 205.324219 237.417969 C 205.621094 237.484375 205.925781 237.554688 206.210938 237.640625 C 206.261719 237.640625 206.304688 237.660156 206.339844 237.667969 C 206.710938 237.761719 207.085938 237.859375 207.449219 237.972656 C 207.847656 238.074219 208.230469 238.1875 208.609375 238.300781 C 209.050781 238.429688 209.484375 238.5625 209.925781 238.699219 C 210.265625 238.804688 210.601562 238.914062 210.941406 239.027344 C 211.15625 239.097656 211.375 239.175781 211.582031 239.246094 C 211.9375 239.367188 212.292969 239.488281 212.640625 239.609375 C 213.074219 239.765625 213.496094 239.914062 213.914062 240.078125 C 213.949219 240.09375 213.972656 240.101562 214 240.113281 C 214.441406 240.269531 214.875 240.441406 215.308594 240.605469 C 215.628906 240.746094 215.949219 240.867188 216.28125 241.003906 C 217.136719 241.359375 217.96875 241.714844 218.800781 242.089844 C 219.164062 242.261719 219.527344 242.425781 219.882812 242.601562 C 220.214844 242.746094 220.542969 242.902344 220.871094 243.066406 C 221.167969 243.214844 221.460938 243.355469 221.757812 243.511719 C 222.035156 243.640625 222.300781 243.789062 222.570312 243.925781 C 222.742188 244.011719 222.917969 244.097656 223.089844 244.195312 C 223.808594 244.566406 224.511719 244.957031 225.195312 245.347656 C 225.449219 245.484375 225.707031 245.640625 225.949219 245.78125 C 226.105469 245.875 226.261719 245.960938 226.417969 246.050781 L 227.007812 246.40625 C 227.207031 246.527344 227.40625 246.65625 227.605469 246.777344 C 227.726562 246.855469 227.855469 246.933594 227.988281 247.011719 C 228.359375 247.238281 228.722656 247.460938 229.078125 247.703125 C 229.476562 247.957031 229.867188 248.214844 230.25 248.476562"/><path fill="#BA5C21" d="M 206.425781 213.449219 L 206.035156 251.527344 C 205.933594 261.15625 197.976562 268.964844 188.351562 268.871094 L 184.660156 268.828125 C 175.03125 268.734375 167.238281 260.765625 167.34375 251.136719 L 167.734375 213.0625 C 167.828125 203.429688 175.785156 195.640625 185.414062 195.742188 L 189.09375 195.777344 C 198.722656 195.871094 206.523438 203.828125 206.425781 213.449219"/><path fill="#9E392B" d="M 206.425781 213.449219 L 206.21875 233.601562 C 200.429688 236.75 194.3125 238.542969 188.117188 238.472656 C 180.8125 238.40625 173.859375 236.296875 167.535156 232.691406 L 167.734375 213.0625 C 167.828125 203.429688 175.785156 195.640625 185.414062 195.742188 L 189.09375 195.777344 C 198.722656 195.871094 206.523438 203.828125 206.425781 213.449219"/><path fill="#BA5C21" d="M 234.398438 199.0625 C 234.398438 199.0625 243.5 196.0625 249.398438 186.027344 C 255.804688 175.113281 251.921875 168.230469 250.691406 166.742188 C 247.320312 162.660156 242.035156 165.207031 241.160156 166.636719 C 240.273438 168.074219 227.492188 190.742188 234.398438 199.0625"/><path fill="#9E392B" d="M 243.59375 170.261719 C 243.59375 170.261719 249.332031 171.058594 247.226562 179.128906 C 245.117188 187.195312 239.773438 190.34375 232.511719 194.40625 C 225.25 198.464844 236.347656 171.828125 243.59375 170.261719"/><path fill="#BA5C21" d="M 142.402344 198.117188 C 142.402344 198.117188 133.367188 194.9375 127.679688 184.777344 C 121.492188 173.734375 125.515625 166.941406 126.78125 165.476562 C 130.230469 161.460938 135.464844 164.113281 136.3125 165.570312 C 137.160156 167.019531 149.484375 189.945312 142.402344 198.117188"/><path fill="#9E392B" d="M 133.808594 169.140625 C 133.808594 169.140625 128.054688 169.816406 129.996094 177.929688 C 131.925781 186.035156 137.214844 189.292969 144.386719 193.507812 C 151.574219 197.710938 141.007812 170.859375 133.808594 169.140625"/><path fill="#351F16" d="M 134.710938 99.679688 C 135.097656 105.957031 134.109375 163.804688 134.109375 163.804688 L 243.644531 164.921875 C 243.644531 164.921875 249.945312 114.71875 244.296875 101.230469 C 238.644531 87.734375 233.300781 100.6875 233.300781 100.6875 C 233.300781 100.6875 225.75 88.828125 207.621094 96.515625 C 207.621094 96.515625 204.832031 88.976562 193.117188 91.316406 C 193.117188 91.316406 179.390625 77.59375 171.035156 88.777344 C 171.035156 88.777344 158.574219 79.113281 153.269531 89.460938 C 153.269531 89.460938 133.632812 82.761719 134.710938 99.679688"/><path fill="#BA5C21" d="M 243.644531 164.921875 C 243.984375 131.699219 219.738281 104.515625 189.492188 104.214844 C 159.242188 103.902344 134.449219 130.578125 134.109375 163.804688 C 133.773438 197.027344 157.933594 232.007812 188.175781 232.3125 C 216.609375 232.605469 243.308594 197.867188 243.644531 164.921875"/><path fill="#351F16" d="M 243.378906 114.222656 L 195.644531 97.695312 L 190.742188 97.652344 L 188.261719 97.617188 L 183.359375 97.574219 L 135.296875 113.113281 L 134 163.804688 C 135.253906 152.535156 145.394531 123.1875 154.875 128.050781 C 162.578125 132 181.164062 133.777344 187.882812 134.308594 L 187.882812 134.453125 C 187.882812 134.453125 188.332031 134.4375 189.121094 134.394531 C 189.910156 134.453125 190.359375 134.480469 190.359375 134.480469 L 190.367188 134.332031 C 197.09375 133.941406 215.714844 132.546875 223.488281 128.75 C 233.074219 124.089844 242.613281 153.628906 243.644531 164.921875 L 243.378906 114.222656"/></svg>