<svg xmlns="http://www.w3.org/2000/svg" width="375" viewBox="0 0 375 375" height="375" version="1.0"><defs><clipPath id="a"><path d="M 50.863281 37.5 L 323.863281 37.5 L 323.863281 311 L 50.863281 311 Z M 50.863281 37.5"/></clipPath><clipPath id="b"><path d="M 107 235 L 268 235 L 268 337.5 L 107 337.5 Z M 107 235"/></clipPath></defs><g clip-path="url(#a)"><path fill="#F366BA" d="M 323.878906 174.148438 C 323.878906 249.597656 262.78125 310.753906 187.40625 310.753906 C 112.035156 310.753906 50.9375 249.597656 50.9375 174.148438 C 50.933594 98.699219 112.035156 37.542969 187.40625 37.542969 C 262.78125 37.539062 323.878906 98.699219 323.878906 174.148438"/></g><path fill="#23255D" d="M 251.058594 161.449219 C 245.558594 167.433594 247.019531 170.398438 252.464844 175.269531 C 257.964844 180.183594 256.984375 187.089844 250.9375 191.789062 C 245.480469 196.015625 238.511719 197.304688 238.023438 205.375 C 237.640625 211.601562 242.949219 219.335938 238.335938 224.859375 C 233.359375 230.824219 225.128906 224.667969 219.339844 226.78125 C 213.570312 228.894531 213.136719 239.699219 206.28125 237.652344 C 203.074219 236.695312 201.320312 233.617188 197.617188 233.207031 C 194.6875 232.878906 191.246094 234.199219 188.597656 235.480469 C 185.679688 236.886719 183.28125 238.957031 180.132812 236.375 C 177.363281 234.097656 179.011719 230.972656 174.5625 230.574219 C 171.503906 230.304688 168.132812 233.539062 164.597656 233.207031 C 160.226562 232.800781 160.121094 230.460938 158.921875 226.683594 C 156.542969 219.203125 149.816406 219.039062 142.871094 217.101562 C 136.398438 215.300781 130.1875 210.046875 130.273438 202.765625 C 130.34375 196.460938 137.484375 190.152344 134.183594 183.628906 C 132.921875 181.148438 129.046875 179.445312 127.34375 177.019531 C 125.085938 173.800781 125.050781 171 125.058594 167.101562 C 125.066406 160.476562 126.34375 152.863281 130.167969 147.523438 C 139.484375 134.476562 159.210938 128.535156 174.25 124.917969 C 184.402344 122.472656 192.707031 121.855469 202.398438 126.117188 C 210.21875 129.542969 217.628906 131.996094 224.886719 136.78125 C 231.054688 140.84375 236.148438 143.289062 241.59375 148.296875 C 245.105469 151.523438 251.917969 157.761719 251.925781 162.320312"/><g clip-path="url(#b)"><path fill="#FFF" d="M 267.03125 311.128906 C 260.277344 316.171875 253.03125 320.589844 245.375 324.289062 C 244.210938 324.851562 243.046875 325.390625 241.863281 325.921875 C 225.242188 333.386719 206.8125 337.535156 187.40625 337.535156 C 168.003906 337.535156 149.582031 333.386719 132.957031 325.921875 C 131.769531 325.390625 130.59375 324.851562 129.4375 324.289062 C 121.785156 320.582031 114.535156 316.171875 107.792969 311.128906 C 108.976562 284.71875 122.992188 261.652344 143.75 248.03125 C 156.289062 239.792969 171.289062 235.007812 187.40625 235.007812 C 189.867188 235.007812 192.300781 235.121094 194.6875 235.339844 C 208.042969 236.550781 220.4375 241.046875 231.0625 248.03125 C 240.621094 254.300781 248.746094 262.574219 254.847656 272.246094 C 262.007812 283.597656 266.378906 296.878906 267.03125 311.128906"/></g><path fill="#FBD5C0" d="M 231.0625 248.03125 C 229.847656 257.242188 225.789062 265.566406 219.785156 272.074219 C 211.738281 280.796875 200.214844 286.269531 187.40625 286.269531 C 166.890625 286.269531 149.652344 272.21875 144.757812 253.207031 C 144.324219 251.519531 143.984375 249.789062 143.75 248.03125 C 156.289062 239.792969 171.289062 235.007812 187.40625 235.007812 C 189.867188 235.007812 192.300781 235.113281 194.699219 235.339844 C 195.113281 235.375 195.53125 235.417969 195.941406 235.460938 C 196.199219 235.488281 196.460938 235.515625 196.714844 235.546875 C 197 235.574219 197.289062 235.617188 197.566406 235.652344 C 197.738281 235.671875 197.921875 235.695312 198.09375 235.722656 C 198.347656 235.75 198.609375 235.792969 198.867188 235.828125 C 199.070312 235.851562 199.269531 235.886719 199.476562 235.914062 C 199.652344 235.941406 199.824219 235.964844 200 236 C 200.292969 236.042969 200.582031 236.097656 200.875 236.140625 C 202.144531 236.359375 203.40625 236.601562 204.648438 236.878906 L 205.480469 237.0625 C 205.636719 237.105469 205.804688 237.140625 205.960938 237.183594 C 206.253906 237.253906 206.558594 237.324219 206.84375 237.402344 C 206.898438 237.410156 206.941406 237.417969 206.976562 237.425781 C 207.351562 237.523438 207.722656 237.617188 208.089844 237.722656 C 208.488281 237.820312 208.878906 237.933594 209.261719 238.046875 C 209.703125 238.167969 210.140625 238.296875 210.582031 238.429688 C 210.921875 238.53125 211.261719 238.636719 211.597656 238.75 C 211.816406 238.820312 212.042969 238.890625 212.25 238.957031 C 212.605469 239.070312 212.964844 239.191406 213.3125 239.316406 C 213.746094 239.460938 214.171875 239.609375 214.597656 239.765625 C 214.632812 239.785156 214.65625 239.792969 214.683594 239.800781 C 215.125 239.957031 215.5625 240.125 215.996094 240.289062 C 216.316406 240.417969 216.648438 240.542969 216.976562 240.679688 C 217.839844 241.019531 218.679688 241.375 219.515625 241.742188 L 220.609375 242.238281 C 220.941406 242.386719 221.269531 242.542969 221.601562 242.699219 C 221.90625 242.847656 222.199219 242.984375 222.496094 243.132812 C 222.773438 243.265625 223.042969 243.402344 223.3125 243.542969 C 223.484375 243.628906 223.667969 243.714844 223.84375 243.8125 C 224.5625 244.175781 225.269531 244.558594 225.960938 244.941406 C 226.214844 245.082031 226.476562 245.230469 226.71875 245.367188 C 226.882812 245.464844 227.039062 245.550781 227.195312 245.636719 L 227.789062 245.988281 L 228.386719 246.351562 L 228.777344 246.585938 C 229.152344 246.804688 229.515625 247.03125 229.882812 247.265625 C 230.28125 247.515625 230.671875 247.769531 231.0625 248.03125"/><path fill="#FBD5C0" d="M 206.8125 213.132812 L 206.8125 251.34375 C 206.8125 261.007812 198.910156 268.921875 189.257812 268.921875 L 185.554688 268.921875 C 175.902344 268.921875 168.011719 261.007812 168.011719 251.34375 L 168.011719 213.132812 C 168.011719 203.46875 175.902344 195.570312 185.554688 195.570312 L 189.257812 195.570312 C 198.910156 195.570312 206.8125 203.46875 206.8125 213.132812"/><path fill="#F8A29E" d="M 206.8125 213.132812 L 206.8125 233.355469 C 201.042969 236.566406 194.921875 238.429688 188.710938 238.429688 C 181.386719 238.429688 174.398438 236.390625 168.011719 232.835938 L 168.011719 213.132812 C 168.011719 203.46875 175.902344 195.570312 185.554688 195.570312 L 189.257812 195.570312 C 198.910156 195.570312 206.8125 203.46875 206.8125 213.132812"/><path fill="#FBD5C0" d="M 234.722656 198.398438 C 234.722656 198.398438 243.8125 195.300781 249.617188 185.160156 C 255.925781 174.148438 251.960938 167.285156 250.710938 165.796875 C 247.296875 161.734375 242.019531 164.34375 241.152344 165.796875 C 240.285156 167.25 227.699219 190.125 234.722656 198.398438"/><path fill="#F8A29E" d="M 243.628906 169.40625 C 243.628906 169.40625 249.398438 170.148438 247.375 178.261719 C 245.339844 186.386719 240.015625 189.597656 232.765625 193.746094 C 225.527344 197.894531 236.390625 171.058594 243.628906 169.40625"/><path fill="#FBD5C0" d="M 142.457031 198.398438 C 142.457031 198.398438 133.367188 195.300781 127.5625 185.160156 C 121.246094 174.148438 125.207031 167.285156 126.457031 165.796875 C 129.875 161.734375 135.148438 164.34375 136.015625 165.796875 C 136.886719 167.25 149.476562 190.125 142.457031 198.398438"/><path fill="#F8A29E" d="M 133.539062 169.40625 C 133.539062 169.40625 127.777344 170.148438 129.804688 178.261719 C 131.828125 186.386719 137.164062 189.597656 144.402344 193.746094 C 151.648438 197.894531 140.789062 171.058594 133.539062 169.40625"/><path fill="#FBD5C0" d="M 243.628906 164.050781 C 243.628906 130.710938 219.046875 103.675781 188.710938 103.675781 C 158.382812 103.675781 133.785156 130.710938 133.785156 164.050781 C 133.785156 197.390625 158.382812 232.242188 188.710938 232.242188 C 217.210938 232.242188 243.628906 197.113281 243.628906 164.050781"/><path fill="#23255D" d="M 198.425781 143.984375 C 199.148438 151.410156 199.460938 156.683594 206.914062 161.003906 C 213.554688 164.851562 221.46875 164.71875 228.734375 165.433594 C 235.800781 166.128906 252.152344 176.792969 253.464844 176.261719 C 258.730469 174.148438 259.800781 163.996094 258.59375 157.820312 C 256.707031 148.253906 254.394531 140.070312 247.53125 136.199219 C 240.527344 132.257812 235.488281 134.441406 234.0625 124.777344 C 233.035156 117.785156 232.835938 111.679688 228.292969 105.738281 C 224.449219 100.71875 217.871094 96.535156 211.441406 96.238281 C 207.664062 96.074219 203.875 97.117188 200.667969 99.074219 C 198.496094 100.394531 197.0625 103.277344 194.59375 104.09375 C 192.445312 104.804688 190.613281 103.660156 188.328125 104.257812 C 183.503906 105.503906 181.394531 110.25 181.125 114.808594 C 180.828125 120.003906 182.089844 123.871094 186.207031 126.917969 C 192.933594 131.882812 197.410156 133.945312 198.320312 142.886719 C 198.355469 143.261719 198.390625 143.625 198.425781 143.984375"/><path fill="#23255D" d="M 198.296875 104.964844 C 200.839844 89.855469 184.765625 87.855469 173.886719 88.402344 C 167.117188 88.742188 159.523438 91.089844 154.480469 95.8125 C 148.816406 101.128906 148.390625 108.042969 144.601562 114.320312 C 141.109375 120.097656 135.765625 123.324219 130.976562 127.832031 C 125.101562 133.355469 121.375 141.878906 122.113281 150.125 C 122.78125 157.515625 132.898438 177.609375 137.304688 162.433594 C 138.484375 158.335938 140.613281 156.160156 145.191406 155.75 C 152.476562 155.089844 159.296875 158.4375 159.773438 147.742188 C 160.105469 140.375 155.707031 130.414062 167.785156 130.777344 C 174.703125 130.988281 179.472656 135.972656 187.078125 134.09375 C 194.785156 132.1875 195.472656 127.925781 195.785156 121.089844 C 196.035156 115.738281 197.398438 110.277344 198.296875 104.964844"/><path fill="#23255D" d="M 195.90625 118.359375 C 200.582031 123.996094 198.363281 131.476562 194.890625 133.71875 C 192.628906 135.179688 187.867188 132.570312 184.644531 135.570312 C 181.089844 138.867188 182.105469 141.078125 183.886719 144.3125 C 187.867188 151.558594 180.691406 153.105469 176.066406 155.472656 C 174.320312 156.371094 170.269531 160.542969 173.15625 167.964844 C 167.167969 166.632812 160.363281 160.71875 163.3125 154.351562 C 164.667969 151.410156 167.359375 150.339844 168.777344 147.792969 C 170.488281 144.695312 169.933594 143.347656 168.429688 140.992188 C 159.296875 126.71875 178.761719 119.011719 189.804688 116.175781 C 191.144531 115.828125 192.734375 115.652344 194.054688 115.382812 C 195.722656 116.871094 197.019531 118.699219 198.078125 120.53125"/></svg>