<svg xmlns="http://www.w3.org/2000/svg" width="375" viewBox="0 0 375 375" height="375" version="1.0"><defs><clipPath id="a"><path d="M 35.257812 42.085938 L 333.007812 42.085938 L 333.007812 339.835938 L 35.257812 339.835938 Z M 35.257812 42.085938"/></clipPath></defs><g clip-path="url(#a)"><path d="M 323.800781 230.65625 C 320.023438 243.507812 314.261719 255.699219 307.109375 266.929688 C 301.203125 276.066406 294.488281 284.65625 286.945312 292.46875 C 285.96875 293.535156 284.878906 294.492188 283.84375 295.5 C 282.789062 296.488281 281.765625 297.511719 280.691406 298.472656 L 277.421875 301.320312 L 275.785156 302.742188 L 274.089844 304.089844 L 270.703125 306.796875 C 269.554688 307.675781 268.371094 308.503906 267.210938 309.363281 C 264.910156 311.121094 262.46875 312.667969 260.074219 314.292969 C 259.730469 314.527344 259.367188 314.769531 258.988281 315.023438 C 258.597656 315.257812 258.195312 315.5 257.773438 315.753906 C 256.925781 316.261719 256.019531 316.804688 255.050781 317.382812 C 253.140625 318.582031 250.878906 319.710938 248.4375 321.011719 C 247.824219 321.328125 247.207031 321.671875 246.558594 321.984375 C 245.902344 322.289062 245.238281 322.597656 244.558594 322.910156 C 243.203125 323.539062 241.796875 324.1875 240.347656 324.859375 C 237.371094 326.023438 234.269531 327.417969 230.886719 328.5 C 217.53125 333.34375 200.863281 336.335938 184.132812 336.40625 C 167.40625 336.335938 150.738281 333.34375 137.382812 328.5 C 134 327.417969 130.898438 326.023438 127.921875 324.859375 C 126.472656 324.1875 125.066406 323.539062 123.710938 322.910156 C 123.03125 322.597656 122.363281 322.289062 121.710938 321.984375 C 121.0625 321.675781 120.449219 321.328125 119.832031 321.011719 C 117.394531 319.714844 115.128906 318.582031 113.21875 317.382812 C 112.25 316.804688 111.34375 316.261719 110.5 315.753906 C 110.078125 315.503906 109.671875 315.257812 109.28125 315.023438 C 108.902344 314.769531 108.539062 314.527344 108.195312 314.296875 C 99.109375 308.339844 90.570312 301.574219 82.8125 293.976562 C 74.625 285.800781 67.472656 276.644531 61.164062 266.933594 C 54.007812 255.703125 48.246094 243.507812 44.46875 230.65625 C 40.539062 217.847656 38.722656 204.40625 38.605469 190.960938 C 38.722656 177.519531 40.539062 164.074219 44.46875 151.265625 C 48.246094 138.414062 54.007812 126.222656 61.160156 114.992188 C 67.066406 105.855469 73.78125 97.265625 81.324219 89.453125 C 82.300781 88.386719 83.390625 87.433594 84.425781 86.425781 C 85.480469 85.4375 86.503906 84.414062 87.578125 83.449219 L 90.847656 80.605469 L 92.484375 79.179688 L 94.179688 77.832031 L 97.566406 75.125 C 98.714844 74.25 99.898438 73.421875 101.058594 72.5625 C 103.359375 70.800781 105.800781 69.257812 108.195312 67.628906 C 108.539062 67.398438 108.902344 67.15625 109.28125 66.898438 C 109.667969 66.667969 110.074219 66.421875 110.496094 66.167969 C 111.34375 65.664062 112.25 65.121094 113.21875 64.542969 C 115.128906 63.339844 117.390625 62.210938 119.832031 60.914062 C 120.445312 60.597656 121.0625 60.25 121.710938 59.9375 C 122.363281 59.636719 123.03125 59.328125 123.707031 59.011719 C 125.066406 58.386719 126.472656 57.734375 127.921875 57.066406 C 130.898438 55.902344 134 54.503906 137.382812 53.421875 C 150.738281 48.578125 167.40625 45.585938 184.132812 45.515625 C 200.859375 45.585938 217.53125 48.578125 230.886719 53.421875 C 234.269531 54.503906 237.371094 55.902344 240.347656 57.066406 C 241.796875 57.734375 243.203125 58.386719 244.558594 59.011719 C 245.238281 59.328125 245.902344 59.636719 246.558594 59.9375 C 247.207031 60.25 247.820312 60.597656 248.433594 60.914062 C 250.875 62.210938 253.140625 63.339844 255.050781 64.542969 C 256.015625 65.121094 256.925781 65.664062 257.769531 66.167969 C 258.191406 66.421875 258.597656 66.664062 258.988281 66.898438 C 259.367188 67.152344 259.726562 67.398438 260.074219 67.628906 C 269.160156 73.582031 277.699219 80.347656 285.457031 87.945312 C 293.640625 96.121094 300.796875 105.28125 307.105469 114.992188 C 314.261719 126.222656 320.023438 138.414062 323.800781 151.265625 C 327.730469 164.074219 329.546875 177.519531 329.664062 190.960938 C 329.546875 204.40625 327.730469 217.847656 323.800781 230.65625 Z M 333.007812 190.863281 L 333.003906 190.851562 C 332.882812 177.125 331.039062 163.386719 327.039062 150.292969 C 323.191406 137.15625 317.300781 124.683594 309.957031 113.230469 L 306.425781 107.925781 C 306.425781 107.925781 305.40625 106.5 303.875 104.359375 C 302.402344 102.171875 300.148438 99.480469 297.992188 96.714844 C 295.671875 94.085938 293.449219 91.371094 291.578125 89.519531 C 289.757812 87.621094 288.546875 86.359375 288.546875 86.359375 C 288.546875 86.359375 288.238281 86.042969 287.6875 85.511719 C 287.136719 84.980469 286.347656 84.21875 285.402344 83.304688 C 283.558594 81.425781 280.882812 79.164062 278.253906 76.84375 C 276.90625 75.722656 275.523438 74.648438 274.242188 73.621094 C 273.597656 73.109375 272.976562 72.613281 272.386719 72.144531 C 271.777344 71.703125 271.199219 71.289062 270.664062 70.902344 C 268.535156 69.363281 267.113281 68.339844 267.113281 68.339844 C 267.113281 68.339844 266.800781 68.085938 266.300781 67.761719 C 265.804688 67.433594 265.144531 66.992188 264.484375 66.546875 C 263.160156 65.660156 261.839844 64.777344 261.839844 64.777344 C 261.484375 64.539062 261.117188 64.289062 260.730469 64.027344 C 260.332031 63.785156 259.917969 63.535156 259.484375 63.273438 C 258.621094 62.753906 257.695312 62.199219 256.707031 61.605469 C 254.75 60.375 252.4375 59.210938 249.941406 57.878906 C 249.3125 57.554688 248.683594 57.199219 248.019531 56.882812 C 247.351562 56.570312 246.671875 56.25 245.976562 55.929688 C 244.589844 55.285156 243.148438 54.621094 241.664062 53.929688 C 238.621094 52.734375 235.445312 51.308594 231.984375 50.195312 C 218.316406 45.230469 201.25 42.152344 184.132812 42.085938 C 167.019531 42.152344 149.953125 45.230469 136.28125 50.195312 C 132.820312 51.308594 129.644531 52.738281 126.601562 53.933594 C 125.117188 54.621094 123.679688 55.285156 122.292969 55.929688 C 121.597656 56.253906 120.917969 56.570312 120.25 56.882812 C 119.585938 57.199219 118.953125 57.554688 118.324219 57.878906 C 115.828125 59.210938 113.515625 60.375 111.5625 61.605469 C 110.574219 62.199219 109.648438 62.757812 108.78125 63.273438 C 108.351562 63.535156 107.9375 63.789062 107.539062 64.027344 C 107.152344 64.289062 106.78125 64.539062 106.429688 64.777344 C 106.429688 64.777344 105.109375 65.660156 103.785156 66.546875 C 103.125 66.992188 102.460938 67.433594 101.96875 67.765625 C 101.464844 68.085938 101.15625 68.339844 101.15625 68.339844 C 101.15625 68.339844 99.734375 69.363281 97.605469 70.902344 C 97.070312 71.289062 96.492188 71.703125 95.882812 72.144531 C 95.292969 72.613281 94.671875 73.109375 94.027344 73.621094 C 92.746094 74.648438 91.363281 75.722656 90.011719 76.84375 C 87.386719 79.164062 84.710938 81.425781 82.867188 83.304688 C 81.921875 84.21875 81.132812 84.980469 80.582031 85.511719 C 80.03125 86.042969 79.722656 86.359375 79.722656 86.359375 C 79.722656 86.359375 78.511719 87.621094 76.691406 89.519531 C 74.820312 91.371094 72.597656 94.085938 70.273438 96.714844 C 68.121094 99.480469 65.863281 102.175781 64.394531 104.359375 C 62.863281 106.5 61.839844 107.925781 61.839844 107.925781 L 58.3125 113.230469 C 50.96875 124.683594 45.078125 137.15625 41.230469 150.292969 C 37.230469 163.390625 35.386719 177.125 35.265625 190.851562 L 35.261719 190.863281 L 35.257812 190.960938 L 35.261719 191.058594 L 35.265625 191.074219 C 35.386719 204.800781 37.230469 218.535156 41.230469 231.632812 C 45.078125 244.769531 50.96875 257.238281 58.3125 268.691406 L 61.84375 273.996094 C 61.84375 273.996094 62.863281 275.425781 64.394531 277.566406 C 65.867188 279.75 68.121094 282.441406 70.273438 285.210938 C 72.597656 287.839844 74.820312 290.550781 76.691406 292.402344 C 78.511719 294.300781 79.722656 295.566406 79.722656 295.566406 C 79.722656 295.566406 80.03125 295.878906 80.582031 296.410156 C 81.132812 296.941406 81.921875 297.703125 82.867188 298.617188 C 84.710938 300.496094 87.386719 302.757812 90.011719 305.082031 C 91.363281 306.199219 92.746094 307.273438 94.027344 308.304688 C 94.671875 308.816406 95.292969 309.308594 95.882812 309.777344 C 96.492188 310.21875 97.070312 310.636719 97.605469 311.019531 C 99.734375 312.558594 101.15625 313.582031 101.15625 313.582031 C 101.15625 313.582031 101.464844 313.835938 101.96875 314.160156 C 102.464844 314.492188 103.125 314.933594 103.785156 315.375 C 105.109375 316.261719 106.429688 317.148438 106.429688 317.148438 C 106.785156 317.386719 107.152344 317.636719 107.539062 317.894531 C 107.9375 318.136719 108.351562 318.386719 108.78125 318.648438 C 109.648438 319.167969 110.574219 319.726562 111.5625 320.320312 C 113.515625 321.550781 115.828125 322.714844 118.328125 324.042969 C 118.957031 324.367188 119.585938 324.722656 120.25 325.042969 C 120.917969 325.355469 121.597656 325.671875 122.292969 325.996094 C 123.679688 326.636719 125.121094 327.304688 126.605469 327.992188 C 129.648438 329.1875 132.820312 330.613281 136.285156 331.730469 C 149.953125 336.695312 167.019531 339.769531 184.132812 339.835938 C 201.25 339.769531 218.316406 336.695312 231.988281 331.726562 C 235.445312 330.613281 238.625 329.1875 241.667969 327.992188 C 243.152344 327.304688 244.589844 326.636719 245.976562 325.992188 C 246.671875 325.671875 247.351562 325.351562 248.019531 325.042969 C 248.683594 324.722656 249.316406 324.367188 249.945312 324.042969 C 252.441406 322.714844 254.753906 321.550781 256.707031 320.320312 C 257.695312 319.726562 258.621094 319.167969 259.488281 318.648438 C 259.917969 318.386719 260.332031 318.136719 260.730469 317.894531 C 261.117188 317.632812 261.488281 317.386719 261.839844 317.148438 C 261.839844 317.148438 263.160156 316.261719 264.484375 315.375 C 265.144531 314.933594 265.804688 314.492188 266.300781 314.160156 C 266.800781 313.835938 267.113281 313.582031 267.113281 313.582031 C 267.113281 313.582031 268.535156 312.558594 270.664062 311.019531 C 271.199219 310.636719 271.777344 310.21875 272.386719 309.777344 C 272.976562 309.308594 273.597656 308.816406 274.242188 308.304688 C 275.523438 307.273438 276.90625 306.199219 278.253906 305.082031 C 280.882812 302.757812 283.558594 300.496094 285.402344 298.617188 C 286.347656 297.703125 287.136719 296.941406 287.6875 296.410156 C 288.238281 295.878906 288.546875 295.566406 288.546875 295.566406 C 288.546875 295.566406 289.757812 294.300781 291.578125 292.402344 C 293.449219 290.550781 295.671875 287.839844 297.992188 285.210938 C 300.148438 282.441406 302.402344 279.75 303.875 277.566406 C 305.40625 275.421875 306.425781 273.996094 306.425781 273.996094 L 309.957031 268.691406 C 317.300781 257.238281 323.191406 244.765625 327.039062 231.632812 C 331.039062 218.535156 332.882812 204.796875 333.003906 191.070312 L 333.007812 191.058594 L 333.007812 190.863281"/></g><g><g><g><path d="M 11.796875 -3.53125 L 25.9375 -7.078125 L 25.9375 -158 L 11.796875 -161.546875 L 11.796875 -165.078125 L 74.28125 -165.078125 C 101.007812 -165.078125 120.269531 -161.03125 132.0625 -152.9375 C 143.851562 -144.84375 149.75 -133.5625 149.75 -119.09375 C 149.75 -109.34375 147.15625 -101.441406 141.96875 -95.390625 C 136.78125 -89.335938 130.097656 -84.816406 121.921875 -81.828125 C 113.273438 -78.523438 104.078125 -76.796875 94.328125 -76.640625 L 94.328125 -75.46875 C 100.148438 -75.15625 105.257812 -74.289062 109.65625 -72.875 C 120.664062 -69.414062 128.132812 -63.203125 132.0625 -54.234375 L 153.28125 -7.078125 L 165.078125 -3.53125 L 165.078125 0 L 132.0625 0 C 119.164062 0 109.734375 -6.679688 103.765625 -20.046875 L 80.1875 -73.109375 L 64.859375 -73.109375 L 64.859375 -7.078125 L 81.359375 -3.53125 L 81.359375 0 L 11.796875 0 Z M 74.28125 -79 C 85.289062 -79 93.9375 -82.457031 100.21875 -89.375 C 106.507812 -96.289062 109.65625 -106.195312 109.65625 -119.09375 C 109.65625 -131.988281 106.507812 -141.894531 100.21875 -148.8125 C 93.9375 -155.726562 85.289062 -159.1875 74.28125 -159.1875 L 64.859375 -159.1875 L 64.859375 -79 Z M 74.28125 -79" transform="translate(104.956 267.291)"/></g></g></g></svg>