<svg xmlns="http://www.w3.org/2000/svg" width="375" viewBox="0 0 375 375" height="375" version="1.0"><path fill="#8C52FF" d="M 270.09375 162.085938 C 266.949219 148.84375 257.566406 137.324219 245.988281 130.378906 C 231.320312 121.589844 213.625 119.335938 196.761719 120.105469 C 182.273438 120.757812 167.847656 123.371094 154.484375 129.132812 C 130.023438 139.699219 111.257812 162.800781 113.277344 190.46875 C 113.8125 197.476562 115.710938 204.363281 119.335938 210.359375 C 123.609375 217.367188 129.726562 222.414062 136.316406 227.105469 C 149.203125 236.191406 165.886719 250.679688 161.136719 267.839844 C 160.484375 267.71875 159.828125 267.601562 159.117188 267.480469 C 154.425781 266.652344 152.824219 274.84375 157.574219 275.855469 C 171.347656 278.761719 185.539062 280.070312 199.613281 278.941406 C 201.988281 278.761719 204.957031 277.160156 204.71875 274.25 C 203.414062 258.632812 208.996094 242.957031 220.75 232.390625 C 226.925781 226.867188 234.171875 222.769531 241 218.078125 C 247.292969 213.746094 253.054688 208.933594 257.980469 203.117188 C 267.839844 191.894531 273.597656 176.988281 270.09375 162.085938 Z M 249.90625 197.773438 C 238.445312 210.597656 221.464844 216.476562 210.0625 229.300781 C 200.089844 240.523438 194.980469 254.835938 194.980469 269.621094 C 184.648438 270.214844 174.4375 269.855469 164.164062 268.371094 C 167.847656 258.160156 164.996094 246.640625 158.9375 237.554688 C 154.78125 231.320312 149.261719 226.511719 143.441406 221.878906 C 137.800781 217.425781 131.746094 213.03125 128.003906 206.679688 C 115.238281 185.125 127.054688 157.8125 146.171875 144.6875 C 157.335938 137.027344 170.636719 132.992188 183.878906 130.972656 C 199.136719 128.65625 215.644531 128.65625 230.429688 133.703125 C 243.078125 138.039062 254.597656 147.0625 259.40625 159.890625 C 264.453125 173.425781 259.167969 187.441406 249.90625 197.773438 Z M 249.90625 197.773438"/><path fill="#8C52FF" d="M 202.285156 206.203125 C 197 205.433594 194.210938 209.765625 192.367188 213.980469 C 192.308594 213.921875 192.308594 213.921875 192.25 213.863281 C 196.941406 205.253906 199.730469 193.320312 193.320312 185.480469 C 192.070312 183.9375 189.816406 184.054688 188.390625 185.183594 C 184.234375 188.449219 183.582031 193.972656 183.105469 198.960938 C 182.632812 203.589844 182.75 208.402344 184.53125 212.675781 C 183.9375 213.566406 183.34375 214.398438 182.632812 215.171875 C 180.730469 207.6875 175.742188 199.910156 167.132812 203.769531 C 159.296875 207.332031 158.464844 218.851562 165.113281 223.898438 C 168.738281 226.628906 172.773438 227.28125 176.691406 226.511719 C 177.109375 237.019531 175.445312 247.113281 173.128906 257.328125 C 172.535156 259.820312 175.800781 260.832031 176.871094 258.515625 C 176.988281 258.277344 177.050781 258.101562 177.167969 257.863281 C 177.878906 260.59375 182.453125 261.484375 183.402344 258.101562 C 185.480469 250.441406 187.796875 242.839844 190.289062 235.300781 C 191.476562 231.796875 192.664062 228.292969 193.914062 224.789062 C 194.269531 223.78125 194.625 222.710938 194.980469 221.640625 C 195.8125 221.761719 196.644531 221.820312 197.535156 221.761719 C 201.75 221.464844 205.90625 218.851562 207.152344 214.695312 C 208.28125 211.074219 206.441406 206.796875 202.285156 206.203125 Z M 189.757812 195.574219 C 189.992188 197.890625 189.695312 200.324219 189.042969 202.699219 C 189.101562 201.988281 189.101562 201.277344 189.222656 200.5625 C 189.339844 199.136719 189.398438 197.296875 189.757812 195.574219 Z M 168.914062 213.921875 C 169.746094 210.714844 172.238281 210.539062 174.019531 213.269531 C 175.148438 214.992188 175.742188 217.011719 176.160156 219.089844 C 175.742188 219.148438 175.269531 219.207031 174.792969 219.207031 C 171.644531 219.386719 167.964844 217.605469 168.914062 213.921875 Z M 182.453125 239.988281 C 183.34375 234.585938 183.699219 229.0625 183.640625 223.71875 C 185.660156 222.414062 187.5 220.75 188.984375 218.910156 C 189.28125 219.207031 189.636719 219.445312 189.933594 219.683594 C 187.261719 226.332031 184.769531 233.160156 182.453125 239.988281 Z M 201.511719 213.804688 C 200.917969 215.289062 198.664062 216.121094 197.058594 216.121094 C 197.417969 215.347656 197.773438 214.636719 198.128906 213.921875 C 198.542969 212.914062 199.199219 212.082031 200.148438 211.429688 C 201.988281 211.667969 202.464844 212.4375 201.511719 213.804688 Z M 201.511719 213.804688"/><path fill="#8C52FF" d="M 197.652344 286.660156 C 194.507812 285.355469 190.824219 285.472656 187.441406 285.296875 C 183.699219 285.117188 179.960938 285.058594 176.21875 285.234375 C 169.566406 285.53125 162.207031 285.652344 155.96875 288.027344 C 152.703125 289.273438 154.546875 293.546875 157.21875 293.964844 C 163.75 294.914062 170.636719 294.140625 177.285156 294.617188 C 180.492188 294.855469 183.757812 295.09375 186.964844 295.507812 C 190.410156 295.921875 193.675781 296.753906 197.179688 296.28125 C 202.523438 295.566406 201.75 288.382812 197.652344 286.660156 Z M 197.652344 286.660156"/><path fill="#8C52FF" d="M 188.628906 301.265625 C 184.292969 299.070312 178.117188 299.960938 173.425781 299.960938 C 167.847656 299.960938 162.382812 300.375 156.859375 301.148438 C 153.476562 301.625 154.546875 306.078125 157.335938 306.613281 C 161.316406 307.324219 165.234375 307.976562 169.210938 308.570312 C 167.90625 310.769531 167.253906 313.320312 167.667969 315.636719 C 169.269531 324.304688 180.078125 327.75 187.085938 323.117188 C 193.792969 318.546875 197.355469 305.601562 188.628906 301.265625 Z M 178.890625 313.738281 C 176.8125 313.441406 179.1875 311.71875 180.492188 311.363281 C 181.324219 311.125 181.917969 310.707031 182.394531 310.175781 C 182.570312 310.175781 182.691406 310.113281 182.632812 310.054688 C 183.582031 312.132812 180.375 313.972656 178.890625 313.738281 Z M 178.890625 313.738281"/><path fill="#8C52FF" d="M 157.632812 103.421875 C 158.464844 107.875 165.054688 107.160156 165.351562 102.769531 C 166.003906 94.097656 164.402344 84.953125 163.75 76.285156 C 163.097656 67.734375 162.738281 59.125 161.550781 50.632812 C 161.078125 47.25 155.671875 47.726562 155.613281 51.109375 C 155.375 59.898438 156.03125 68.746094 156.328125 77.53125 C 156.625 86.023438 156.089844 95.050781 157.632812 103.421875 Z M 157.632812 103.421875"/><path fill="#8C52FF" d="M 98.492188 136.136719 C 94.574219 133.941406 90.773438 131.625 87.03125 129.132812 C 79.671875 124.261719 72.664062 118.800781 66.074219 112.921875 C 62.449219 109.65625 56.632812 114.585938 60.253906 118.085938 C 66.964844 124.558594 74.03125 130.558594 81.628906 135.902344 C 85.25 138.511719 88.992188 140.949219 92.851562 143.261719 C 96.769531 145.640625 100.988281 148.785156 105.617188 149.140625 C 109.121094 149.4375 111.023438 144.984375 108.765625 142.492188 C 106.152344 139.523438 101.9375 138.097656 98.492188 136.136719 Z M 98.492188 136.136719"/><path fill="#8C52FF" d="M 92.378906 194.386719 C 96.59375 193.199219 96.296875 186.90625 91.722656 186.667969 C 82.996094 186.132812 73.554688 188.804688 65.121094 191.003906 C 60.90625 192.132812 56.808594 193.320312 52.710938 194.742188 C 48.554688 196.167969 44.101562 197.417969 40.539062 200.027344 C 37.628906 202.167969 40.539062 205.964844 43.390625 205.609375 C 47.367188 205.136719 51.226562 203.355469 55.085938 202.167969 C 59.246094 200.917969 63.402344 199.792969 67.617188 198.839844 C 75.691406 197 84.300781 196.644531 92.378906 194.386719 Z M 92.378906 194.386719"/><path fill="#8C52FF" d="M 240.941406 107.578125 C 248.421875 94.394531 257.269531 82.578125 268.667969 72.542969 C 273.300781 68.449219 266.886719 61.261719 262.316406 65.359375 C 250.382812 76.167969 240.523438 89.46875 234.585938 104.488281 C 233.160156 108.230469 238.921875 111.082031 240.941406 107.578125 Z M 240.941406 107.578125"/><path fill="#8C52FF" d="M 332.382812 155.851562 C 323.652344 155.554688 314.746094 158.640625 306.671875 161.613281 C 298.296875 164.699219 290.640625 168.914062 283.511719 174.199219 C 280.367188 176.515625 283.929688 181.5625 287.3125 179.78125 C 294.4375 175.921875 301.921875 172.476562 309.640625 169.863281 C 317.359375 167.253906 325.375 166.421875 333.09375 164.046875 C 337.371094 162.738281 337.308594 156.03125 332.382812 155.851562 Z M 332.382812 155.851562"/><path fill="#8C52FF" d="M 95.878906 240.285156 C 85.546875 250.679688 76.226562 261.960938 68.089844 274.074219 C 64.589844 279.238281 72.960938 284.703125 76.167969 279.417969 C 83.292969 267.421875 91.425781 256.082031 100.628906 245.628906 C 103.597656 242.304688 99.207031 236.960938 95.878906 240.285156 Z M 95.878906 240.285156"/><path fill="#8C52FF" d="M 307.738281 269.917969 C 301.445312 264.988281 294.261719 261.007812 287.492188 256.734375 C 280.78125 252.460938 274.011719 247.589844 266.828125 244.085938 C 263.917969 242.660156 259.644531 246.285156 262.671875 248.894531 C 268.730469 254.179688 275.734375 258.515625 282.324219 263.085938 C 289.09375 267.777344 295.804688 273.0625 302.988281 277.101562 C 307.859375 279.773438 312.132812 273.300781 307.738281 269.917969 Z M 307.738281 269.917969"/></svg>