<svg xmlns="http://www.w3.org/2000/svg" width="375" viewBox="0 0 375 375" height="375" version="1.0"><defs><clipPath id="a"><path d="M 37.5 88.5 L 337 88.5 L 337 286.5 L 37.5 286.5 Z M 37.5 88.5"/></clipPath></defs><g clip-path="url(#a)"><path fill="#8C52FF" d="M 91.570312 259.644531 C 88.660156 263.226562 86.285156 266.359375 84.828125 268.660156 L 43.6875 230.015625 C 46.164062 228.753906 49.8125 225.851562 53.988281 222.0625 Z M 112.21875 248.816406 L 100.660156 260.378906 L 99.554688 259.273438 L 95.359375 255.074219 L 58.300781 218.015625 L 56.203125 215.921875 L 54.117188 213.832031 L 52.753906 212.46875 L 64.3125 200.910156 Z M 114.917969 232.90625 C 113.351562 234.632812 111.714844 236.441406 110.054688 238.292969 L 73.75 201.988281 C 75.3125 200.257812 76.824219 198.558594 78.25 196.921875 C 78.246094 196.570312 78.257812 196.222656 78.261719 195.871094 C 77.417969 190.195312 79.167969 183.5625 81.050781 178.121094 C 81.914062 175.632812 89.351562 157.109375 77.820312 142.039062 C 75.777344 139.367188 75.679688 135.386719 79.238281 132.851562 C 80.519531 131.941406 82.148438 131.597656 83.804688 131.597656 C 85.898438 131.597656 88.03125 132.148438 89.558594 132.78125 C 98.066406 136.324219 104.960938 145.960938 104.652344 155.128906 C 104.648438 155.183594 104.734375 155.308594 104.890625 155.496094 L 105.753906 154.65625 L 146.90625 110.84375 C 148.894531 108.726562 151.496094 107.625 153.933594 107.625 C 154.304688 107.625 154.667969 107.65625 155.027344 107.707031 C 155.015625 107.957031 154.992188 108.207031 154.992188 108.460938 L 154.992188 116.148438 C 153.632812 115.597656 152.160156 115.292969 150.625 115.292969 C 143.761719 115.292969 138.183594 121.332031 138.179688 128.757812 L 138.179688 142.554688 L 129.753906 151.527344 C 130.910156 152.296875 132.070312 153.15625 133.246094 154.09375 L 138.179688 148.839844 L 138.179688 177.03125 C 138.179688 177.832031 138.25 178.652344 138.390625 179.476562 L 139.238281 198.242188 C 139.257812 205.445312 140.710938 212.191406 143.441406 218.101562 L 141.292969 220.191406 C 133.621094 228.363281 124.296875 232.707031 114.917969 232.90625 Z M 210.859375 220.488281 C 209.890625 221.617188 208.855469 222.652344 207.742188 223.535156 C 207.507812 223.792969 207.277344 224.054688 207.035156 224.304688 C 206.390625 241.296875 206.902344 264.683594 209.570312 272.09375 L 153.121094 272.09375 C 154.792969 263.4375 155.375 241.902344 155.671875 225.433594 C 153.796875 223.59375 152.15625 221.515625 150.75 219.238281 C 150.21875 218.375 149.71875 217.484375 149.257812 216.566406 C 148.792969 215.636719 148.363281 214.675781 147.972656 213.691406 C 146.132812 209.035156 145.152344 203.785156 145.152344 198.105469 L 144.277344 178.792969 C 144.160156 178.226562 144.09375 177.636719 144.09375 177.03125 L 144.09375 128.757812 C 144.09375 124.585938 147.015625 121.203125 150.625 121.203125 C 152.648438 121.203125 154.460938 122.273438 155.660156 123.949219 C 156.574219 125.230469 157.128906 126.863281 157.148438 128.648438 C 157.148438 128.683594 157.15625 128.71875 157.15625 128.757812 L 157.15625 155.710938 C 157.976562 155.582031 158.847656 155.492188 159.746094 155.410156 C 160.128906 155.378906 160.507812 155.339844 160.90625 155.316406 L 160.90625 108.460938 C 160.90625 108.132812 160.925781 107.8125 160.957031 107.496094 C 161.070312 106.359375 161.378906 105.296875 161.847656 104.34375 C 163.136719 101.710938 165.621094 99.929688 168.476562 99.929688 C 172.308594 99.929688 175.472656 103.144531 175.972656 107.308594 C 176.015625 107.683594 176.050781 108.070312 176.050781 108.460938 L 176.050781 155.179688 C 176.398438 155.179688 176.742188 155.179688 177.097656 155.179688 C 177.933594 155.179688 178.757812 155.175781 179.578125 155.171875 C 179.867188 155.171875 180.167969 155.171875 180.457031 155.167969 L 180.457031 104.261719 C 180.457031 98.828125 183.996094 94.417969 188.363281 94.417969 C 192.726562 94.417969 196.265625 98.828125 196.265625 104.261719 L 196.265625 155.4375 C 197.765625 155.558594 199.203125 155.726562 200.566406 155.957031 L 200.566406 114.558594 C 200.566406 112.4375 201.183594 110.488281 202.210938 108.9375 C 203.613281 106.8125 205.792969 105.441406 208.246094 105.441406 C 212.164062 105.441406 215.390625 108.933594 215.855469 113.4375 C 215.898438 113.804688 215.921875 114.175781 215.921875 114.558594 L 215.921875 174.667969 L 215.976562 175.875 C 216.21875 175.84375 216.363281 175.808594 216.402344 175.769531 C 220.632812 170.941406 227.597656 168.367188 234.355469 168.367188 C 237.25 168.367188 240.113281 168.839844 242.699219 169.8125 C 245.472656 170.855469 249.472656 173.441406 250.175781 176.929688 C 251.03125 181.214844 248.238281 184.046875 244.921875 184.597656 C 226.195312 187.6875 218.9375 206.28125 217.859375 208.683594 C 216.855469 210.933594 215.679688 213.320312 214.316406 215.601562 C 213.796875 216.464844 213.25 217.308594 212.675781 218.128906 C 212.097656 218.949219 211.492188 219.742188 210.859375 220.488281 Z M 219.03125 220.191406 L 218.65625 219.824219 C 220.234375 217.335938 221.757812 214.449219 223.253906 211.097656 C 223.308594 210.976562 223.378906 210.820312 223.460938 210.632812 C 226.964844 202.527344 233.703125 192.441406 245.886719 190.429688 C 249.265625 189.871094 252.277344 187.996094 254.148438 185.289062 C 256.011719 182.589844 256.660156 179.207031 255.96875 175.765625 C 254.804688 169.960938 249.425781 166.027344 244.78125 164.28125 C 241.558594 163.066406 238.054688 162.457031 234.355469 162.457031 C 229.953125 162.457031 225.664062 163.328125 221.832031 164.929688 L 221.832031 148.507812 L 227.078125 154.09375 C 228.253906 153.15625 229.417969 152.296875 230.570312 151.527344 L 221.832031 142.222656 L 221.835938 119.800781 L 254.570312 154.65625 L 255.4375 155.496094 C 255.59375 155.308594 255.675781 155.183594 255.675781 155.128906 C 255.367188 145.960938 262.261719 136.324219 270.765625 132.78125 C 272.292969 132.148438 274.429688 131.597656 276.523438 131.597656 C 278.175781 131.597656 279.804688 131.941406 281.085938 132.851562 C 284.644531 135.386719 284.546875 139.367188 282.507812 142.039062 C 270.972656 157.109375 278.414062 175.632812 279.277344 178.121094 C 281.160156 183.5625 282.90625 190.195312 282.066406 195.871094 C 282.070312 196.222656 282.082031 196.570312 282.078125 196.921875 C 283.949219 199.074219 285.972656 201.335938 288.074219 203.625 L 251.753906 239.945312 C 249.582031 237.519531 247.441406 235.144531 245.410156 232.90625 C 236.027344 232.707031 226.707031 228.363281 219.03125 220.191406 Z M 255.238281 252.8125 L 251.242188 248.816406 L 299.148438 200.910156 L 330.929688 232.695312 L 283.023438 280.601562 L 276.835938 274.414062 Z M 303.328125 196.734375 C 302.171875 195.578125 300.660156 195 299.148438 195 C 297.632812 195 296.121094 195.578125 294.96875 196.734375 L 292.253906 199.445312 C 290.871094 197.933594 289.488281 196.398438 288.121094 194.847656 C 288.503906 189.667969 287.453125 183.671875 284.863281 176.1875 C 284.816406 176.0625 284.757812 175.902344 284.691406 175.707031 C 281.695312 167.398438 279.699219 155.433594 287.203125 145.628906 C 289.285156 142.90625 290.195312 139.480469 289.707031 136.226562 C 289.21875 132.980469 287.375 130.074219 284.515625 128.039062 C 282.324219 126.480469 279.636719 125.6875 276.523438 125.6875 C 273.921875 125.6875 270.996094 126.285156 268.496094 127.324219 C 261.296875 130.320312 255.375 136.464844 252.222656 143.519531 L 221.351562 110.652344 C 219.789062 104.253906 214.511719 99.53125 208.246094 99.53125 C 206.027344 99.53125 203.855469 100.132812 201.925781 101.246094 C 201.445312 98.40625 200.292969 95.757812 198.558594 93.601562 C 195.960938 90.363281 192.242188 88.507812 188.363281 88.507812 C 184.480469 88.507812 180.761719 90.363281 178.164062 93.601562 C 177.414062 94.539062 176.769531 95.566406 176.242188 96.660156 C 174.046875 94.996094 171.367188 94.019531 168.476562 94.019531 C 164.796875 94.019531 161.234375 95.652344 158.703125 98.503906 C 157.78125 99.539062 157.027344 100.699219 156.4375 101.945312 C 155.625 101.792969 154.785156 101.714844 153.933594 101.714844 C 149.765625 101.714844 145.632812 103.566406 142.597656 106.796875 L 108.105469 143.519531 C 104.953125 136.464844 99.03125 130.324219 91.832031 127.324219 C 89.332031 126.285156 86.40625 125.6875 83.804688 125.6875 C 80.691406 125.6875 78 126.480469 75.8125 128.039062 C 72.953125 130.074219 71.109375 132.980469 70.621094 136.226562 C 70.128906 139.480469 71.042969 142.90625 73.125 145.628906 C 80.625 155.433594 78.632812 167.398438 75.636719 175.707031 C 75.566406 175.902344 75.507812 176.0625 75.464844 176.1875 C 72.875 183.671875 71.820312 189.667969 72.207031 194.847656 C 71.332031 195.839844 70.449219 196.824219 69.566406 197.800781 L 68.492188 196.734375 C 67.386719 195.625 65.882812 195 64.3125 195 C 62.746094 195 61.242188 195.625 60.132812 196.734375 L 48.574219 208.292969 C 46.265625 210.601562 46.265625 214.34375 48.574219 216.652344 L 49.796875 217.875 C 45.972656 221.339844 42.863281 223.804688 41.003906 224.75 C 39.289062 225.625 38.105469 227.277344 37.832031 229.183594 C 37.5625 231.089844 38.234375 233.007812 39.636719 234.328125 L 80.78125 272.972656 C 81.882812 274.003906 83.335938 274.570312 84.828125 274.570312 C 85.078125 274.570312 85.324219 274.554688 85.574219 274.523438 C 87.324219 274.300781 88.882812 273.308594 89.828125 271.820312 C 91.097656 269.804688 93.21875 267.007812 95.773438 263.847656 L 96.480469 264.558594 C 97.589844 265.664062 99.09375 266.289062 100.660156 266.289062 C 102.230469 266.289062 103.734375 265.664062 104.839844 264.558594 L 116.398438 253 C 118.707031 250.691406 118.707031 246.945312 116.398438 244.636719 L 114.238281 242.476562 C 115.515625 241.058594 116.679688 239.765625 117.671875 238.667969 C 127.804688 237.738281 137.597656 232.71875 145.507812 224.335938 L 146.425781 223.445312 C 147.429688 224.957031 148.523438 226.394531 149.71875 227.746094 C 149.515625 238.476562 148.96875 262.417969 147.320312 270.972656 C 146.984375 272.707031 147.441406 274.496094 148.5625 275.855469 C 149.6875 277.21875 151.359375 278.003906 153.121094 278.003906 L 209.570312 278.003906 C 211.492188 278.003906 213.296875 277.066406 214.402344 275.492188 C 215.511719 273.917969 215.78125 271.902344 215.128906 270.089844 C 213.253906 264.882812 212.273438 245.859375 212.859375 226.933594 C 213.625 226.230469 214.371094 225.460938 215.101562 224.625 C 222.964844 232.828125 232.640625 237.75 242.652344 238.667969 C 244.019531 240.179688 245.707031 242.046875 247.570312 244.128906 L 247.058594 244.636719 C 244.753906 246.945312 244.753906 250.691406 247.058594 253 L 278.84375 284.78125 C 280 285.933594 281.511719 286.511719 283.023438 286.511719 C 284.539062 286.511719 286.050781 285.933594 287.203125 284.78125 L 335.109375 236.875 C 337.417969 234.566406 337.417969 230.824219 335.109375 228.515625 L 303.328125 196.734375"/></g></svg>