<svg xmlns="http://www.w3.org/2000/svg" width="375" viewBox="0 0 375 375" height="375" version="1.0"><defs><clipPath id="a"><path d="M 288 104 L 325.734375 104 L 325.734375 142 L 288 142 Z M 288 104"/></clipPath><clipPath id="b"><path d="M 48.984375 256 L 86 256 L 86 294 L 48.984375 294 Z M 48.984375 256"/></clipPath><clipPath id="c"><path d="M 238 288 L 275 288 L 275 325.734375 L 238 325.734375 Z M 238 288"/></clipPath><clipPath id="d"><path d="M 108 224 L 211 224 L 211 325.734375 L 108 325.734375 Z M 108 224"/></clipPath><clipPath id="e"><path d="M 132 288 L 188 288 L 188 325.734375 L 132 325.734375 Z M 132 288"/></clipPath><clipPath id="f"><path d="M 48.984375 108 L 151 108 L 151 211 L 48.984375 211 Z M 48.984375 108"/></clipPath><clipPath id="g"><path d="M 159 48.984375 L 262 48.984375 L 262 151 L 159 151 Z M 159 48.984375"/></clipPath><clipPath id="h"><path d="M 81 48.984375 L 119 48.984375 L 119 86 L 81 86 Z M 81 48.984375"/></clipPath></defs><g clip-path="url(#a)"><path fill="#8C52FF" d="M 307.285156 141.234375 C 297.109375 141.234375 288.835938 132.960938 288.835938 122.785156 C 288.835938 112.609375 297.109375 104.335938 307.285156 104.335938 C 317.460938 104.335938 325.734375 112.609375 325.734375 122.785156 C 325.734375 132.960938 317.460938 141.234375 307.285156 141.234375 Z M 307.285156 113.558594 C 302.195312 113.558594 298.058594 117.695312 298.058594 122.785156 C 298.058594 127.871094 302.195312 132.007812 307.285156 132.007812 C 312.371094 132.007812 316.507812 127.871094 316.507812 122.785156 C 316.507812 117.695312 312.371094 113.558594 307.285156 113.558594 Z M 307.285156 113.558594"/></g><g clip-path="url(#b)"><path fill="#8C52FF" d="M 67.433594 293.445312 C 57.257812 293.445312 48.984375 285.171875 48.984375 274.996094 C 48.984375 264.820312 57.257812 256.546875 67.433594 256.546875 C 77.609375 256.546875 85.882812 264.820312 85.882812 274.996094 C 85.882812 285.171875 77.609375 293.445312 67.433594 293.445312 Z M 67.433594 265.773438 C 62.347656 265.773438 58.210938 269.910156 58.210938 274.996094 C 58.210938 280.085938 62.347656 284.222656 67.433594 284.222656 C 72.523438 284.222656 76.660156 280.085938 76.660156 274.996094 C 76.660156 269.910156 72.523438 265.773438 67.433594 265.773438 Z M 67.433594 265.773438"/></g><path fill="#8C52FF" d="M 296.332031 118.933594 C 295.660156 118.933594 294.976562 118.785156 294.332031 118.472656 L 254.539062 99.261719 C 252.246094 98.152344 251.285156 95.394531 252.390625 93.101562 C 253.496094 90.808594 256.25 89.839844 258.546875 90.953125 L 298.339844 110.164062 C 300.632812 111.269531 301.597656 114.03125 300.488281 116.320312 C 299.695312 117.972656 298.050781 118.933594 296.332031 118.933594 Z M 296.332031 118.933594"/><g clip-path="url(#c)"><path fill="#8C52FF" d="M 256.546875 325.734375 C 246.371094 325.734375 238.097656 317.460938 238.097656 307.285156 C 238.097656 297.109375 246.371094 288.835938 256.546875 288.835938 C 266.722656 288.835938 274.996094 297.109375 274.996094 307.285156 C 274.996094 317.460938 266.722656 325.734375 256.546875 325.734375 Z M 256.546875 298.058594 C 251.457031 298.058594 247.320312 302.195312 247.320312 307.285156 C 247.320312 312.371094 251.457031 316.507812 256.546875 316.507812 C 261.632812 316.507812 265.773438 312.371094 265.773438 307.285156 C 265.773438 302.195312 261.632812 298.058594 256.546875 298.058594 Z M 256.546875 298.058594"/></g><path fill="#8C52FF" d="M 245.597656 303.433594 C 244.921875 303.433594 244.242188 303.285156 243.59375 302.972656 L 203.800781 283.761719 C 201.511719 282.652344 200.546875 279.894531 201.652344 277.601562 C 202.761719 275.304688 205.515625 274.339844 207.8125 275.453125 L 247.601562 294.664062 C 249.894531 295.769531 250.859375 298.53125 249.753906 300.820312 C 248.960938 302.472656 247.3125 303.433594 245.597656 303.433594 Z M 245.597656 303.433594"/><path fill="#8C52FF" d="M 187.359375 210.421875 C 177.183594 210.421875 168.910156 202.148438 168.910156 191.972656 C 168.910156 181.796875 177.183594 173.523438 187.359375 173.523438 C 197.535156 173.523438 205.808594 181.796875 205.808594 191.972656 C 205.808594 202.148438 197.535156 210.421875 187.359375 210.421875 Z M 187.359375 182.746094 C 182.269531 182.746094 178.132812 186.882812 178.132812 191.972656 C 178.132812 197.058594 182.269531 201.195312 187.359375 201.195312 C 192.445312 201.195312 196.585938 197.058594 196.585938 191.972656 C 196.585938 186.882812 192.445312 182.746094 187.359375 182.746094 Z M 187.359375 182.746094"/><path fill="#8C52FF" d="M 176.410156 188.121094 C 175.417969 188.121094 174.421875 187.800781 173.578125 187.148438 L 143.011719 163.324219 C 141 161.753906 140.644531 158.859375 142.207031 156.847656 C 143.777344 154.835938 146.671875 154.492188 148.683594 156.042969 L 179.25 179.867188 C 181.261719 181.4375 181.617188 184.332031 180.054688 186.34375 C 179.140625 187.511719 177.785156 188.121094 176.410156 188.121094 Z M 176.410156 188.121094"/><path fill="#8C52FF" d="M 270.382812 270.382812 C 242.410156 270.382812 219.648438 247.621094 219.648438 219.648438 C 219.648438 191.671875 242.410156 168.910156 270.382812 168.910156 C 298.359375 168.910156 321.121094 191.671875 321.121094 219.648438 C 321.121094 247.621094 298.359375 270.382812 270.382812 270.382812 Z M 270.382812 178.132812 C 247.492188 178.132812 228.871094 196.753906 228.871094 219.648438 C 228.871094 242.539062 247.492188 261.160156 270.382812 261.160156 C 293.277344 261.160156 311.898438 242.539062 311.898438 219.648438 C 311.898438 196.753906 293.277344 178.132812 270.382812 178.132812 Z M 270.382812 178.132812"/><path fill="#8C52FF" d="M 270.382812 224.257812 C 260.207031 224.257812 251.933594 215.984375 251.933594 205.808594 C 251.933594 195.632812 260.207031 187.359375 270.382812 187.359375 C 280.558594 187.359375 288.835938 195.632812 288.835938 205.808594 C 288.835938 215.984375 280.558594 224.257812 270.382812 224.257812 Z M 270.382812 196.585938 C 265.296875 196.585938 261.160156 200.722656 261.160156 205.808594 C 261.160156 210.898438 265.296875 215.035156 270.382812 215.035156 C 275.472656 215.035156 279.609375 210.898438 279.609375 205.808594 C 279.609375 200.722656 275.472656 196.585938 270.382812 196.585938 Z M 270.382812 196.585938"/><path fill="#8C52FF" d="M 270.382812 270.382812 C 261.515625 270.382812 252.742188 268.019531 245.011719 263.542969 C 243.585938 262.71875 242.710938 261.195312 242.710938 259.550781 L 242.710938 247.390625 C 242.710938 239.726562 249.121094 233.484375 257.003906 233.484375 L 283.765625 233.484375 C 291.648438 233.484375 298.058594 239.726562 298.058594 247.394531 L 298.058594 259.554688 C 298.058594 261.195312 297.183594 262.722656 295.757812 263.542969 C 288.027344 268.019531 279.253906 270.382812 270.382812 270.382812 Z M 251.933594 256.800781 C 263.414062 262.519531 277.355469 262.519531 288.835938 256.800781 L 288.835938 247.394531 C 288.835938 244.8125 286.558594 242.710938 283.765625 242.710938 L 257.003906 242.710938 C 254.207031 242.710938 251.933594 244.8125 251.933594 247.394531 Z M 251.933594 256.800781"/><g clip-path="url(#d)"><path fill="#8C52FF" d="M 159.683594 325.734375 C 131.710938 325.734375 108.945312 302.972656 108.945312 274.996094 C 108.945312 247.023438 131.710938 224.257812 159.683594 224.257812 C 187.660156 224.257812 210.421875 247.023438 210.421875 274.996094 C 210.421875 302.972656 187.660156 325.734375 159.683594 325.734375 Z M 159.683594 233.484375 C 136.792969 233.484375 118.171875 252.105469 118.171875 274.996094 C 118.171875 297.886719 136.792969 316.507812 159.683594 316.507812 C 182.574219 316.507812 201.195312 297.886719 201.195312 274.996094 C 201.195312 252.105469 182.574219 233.484375 159.683594 233.484375 Z M 159.683594 233.484375"/></g><path fill="#8C52FF" d="M 159.683594 279.609375 C 149.507812 279.609375 141.234375 271.335938 141.234375 261.160156 C 141.234375 250.984375 149.507812 242.710938 159.683594 242.710938 C 169.859375 242.710938 178.132812 250.984375 178.132812 261.160156 C 178.132812 271.335938 169.859375 279.609375 159.683594 279.609375 Z M 159.683594 251.933594 C 154.597656 251.933594 150.460938 256.070312 150.460938 261.160156 C 150.460938 266.246094 154.597656 270.382812 159.683594 270.382812 C 164.773438 270.382812 168.910156 266.246094 168.910156 261.160156 C 168.910156 256.070312 164.773438 251.933594 159.683594 251.933594 Z M 159.683594 251.933594"/><g clip-path="url(#e)"><path fill="#8C52FF" d="M 159.683594 325.734375 C 150.8125 325.734375 142.042969 323.367188 134.3125 318.894531 C 132.886719 318.066406 132.007812 316.546875 132.007812 314.898438 L 132.007812 302.742188 C 132.007812 295.074219 138.421875 288.835938 146.304688 288.835938 L 173.066406 288.835938 C 180.949219 288.835938 187.359375 295.074219 187.359375 302.746094 L 187.359375 314.902344 C 187.359375 316.546875 186.484375 318.074219 185.058594 318.894531 C 177.328125 323.367188 168.554688 325.734375 159.683594 325.734375 Z M 141.234375 312.148438 C 152.714844 317.871094 166.652344 317.871094 178.132812 312.148438 L 178.132812 302.746094 C 178.132812 300.164062 175.859375 298.058594 173.066406 298.058594 L 146.304688 298.058594 C 143.507812 298.058594 141.234375 300.164062 141.234375 302.746094 Z M 141.234375 312.148438"/></g><g clip-path="url(#f)"><path fill="#8C52FF" d="M 99.722656 210.421875 C 71.746094 210.421875 48.984375 187.660156 48.984375 159.683594 C 48.984375 131.710938 71.746094 108.945312 99.722656 108.945312 C 127.695312 108.945312 150.460938 131.710938 150.460938 159.683594 C 150.460938 187.660156 127.695312 210.421875 99.722656 210.421875 Z M 99.722656 118.171875 C 76.828125 118.171875 58.210938 136.792969 58.210938 159.683594 C 58.210938 182.574219 76.828125 201.195312 99.722656 201.195312 C 122.613281 201.195312 141.234375 182.574219 141.234375 159.683594 C 141.234375 136.792969 122.613281 118.171875 99.722656 118.171875 Z M 99.722656 118.171875"/></g><path fill="#8C52FF" d="M 99.722656 164.296875 C 89.546875 164.296875 81.273438 156.023438 81.273438 145.847656 C 81.273438 135.671875 89.546875 127.398438 99.722656 127.398438 C 109.898438 127.398438 118.171875 135.671875 118.171875 145.847656 C 118.171875 156.023438 109.898438 164.296875 99.722656 164.296875 Z M 99.722656 136.621094 C 94.632812 136.621094 90.496094 140.757812 90.496094 145.847656 C 90.496094 150.933594 94.632812 155.070312 99.722656 155.070312 C 104.808594 155.070312 108.945312 150.933594 108.945312 145.847656 C 108.945312 140.757812 104.808594 136.621094 99.722656 136.621094 Z M 99.722656 136.621094"/><path fill="#8C52FF" d="M 99.722656 210.421875 C 90.851562 210.421875 82.078125 208.054688 74.347656 203.582031 C 72.921875 202.753906 72.046875 201.234375 72.046875 199.585938 L 72.046875 187.429688 C 72.046875 179.761719 78.457031 173.523438 86.339844 173.523438 L 113.101562 173.523438 C 120.984375 173.523438 127.398438 179.761719 127.398438 187.433594 L 127.398438 199.589844 C 127.398438 201.234375 126.519531 202.761719 125.09375 203.582031 C 117.363281 208.054688 108.589844 210.421875 99.722656 210.421875 Z M 81.273438 196.835938 C 92.753906 202.558594 106.691406 202.558594 118.171875 196.835938 L 118.171875 187.433594 C 118.171875 184.851562 115.898438 182.746094 113.101562 182.746094 L 86.339844 182.746094 C 83.546875 182.746094 81.273438 184.851562 81.273438 187.433594 Z M 81.273438 196.835938"/><g clip-path="url(#g)"><path fill="#8C52FF" d="M 210.421875 150.460938 C 182.445312 150.460938 159.683594 127.695312 159.683594 99.722656 C 159.683594 71.746094 182.445312 48.984375 210.421875 48.984375 C 238.394531 48.984375 261.160156 71.746094 261.160156 99.722656 C 261.160156 127.695312 238.394531 150.460938 210.421875 150.460938 Z M 210.421875 58.210938 C 187.53125 58.210938 168.910156 76.828125 168.910156 99.722656 C 168.910156 122.613281 187.53125 141.234375 210.421875 141.234375 C 233.3125 141.234375 251.933594 122.613281 251.933594 99.722656 C 251.933594 76.828125 233.3125 58.210938 210.421875 58.210938 Z M 210.421875 58.210938"/></g><path fill="#8C52FF" d="M 210.421875 104.335938 C 200.246094 104.335938 191.972656 96.058594 191.972656 85.882812 C 191.972656 75.707031 200.246094 67.433594 210.421875 67.433594 C 220.597656 67.433594 228.871094 75.707031 228.871094 85.882812 C 228.871094 96.058594 220.597656 104.335938 210.421875 104.335938 Z M 210.421875 76.660156 C 205.332031 76.660156 201.195312 80.796875 201.195312 85.882812 C 201.195312 90.972656 205.332031 95.109375 210.421875 95.109375 C 215.507812 95.109375 219.648438 90.972656 219.648438 85.882812 C 219.648438 80.796875 215.507812 76.660156 210.421875 76.660156 Z M 210.421875 76.660156"/><path fill="#8C52FF" d="M 210.421875 150.460938 C 201.550781 150.460938 192.777344 148.09375 185.046875 143.617188 C 183.621094 142.792969 182.746094 141.269531 182.746094 139.625 L 182.746094 127.464844 C 182.746094 119.800781 189.15625 113.558594 197.039062 113.558594 L 223.800781 113.558594 C 231.683594 113.558594 238.097656 119.800781 238.097656 127.46875 L 238.097656 139.628906 C 238.097656 141.269531 237.21875 142.796875 235.792969 143.617188 C 228.0625 148.09375 219.292969 150.460938 210.421875 150.460938 Z M 191.972656 136.875 C 203.453125 142.59375 217.390625 142.59375 228.871094 136.875 L 228.871094 127.46875 C 228.871094 124.886719 226.597656 122.785156 223.800781 122.785156 L 197.039062 122.785156 C 194.246094 122.785156 191.972656 124.886719 191.972656 127.46875 Z M 191.972656 136.875"/><path fill="#8C52FF" d="M 132.335938 131.6875 C 131.035156 131.6875 129.746094 131.136719 128.832031 130.070312 C 127.175781 128.132812 127.402344 125.222656 129.339844 123.566406 L 161.304688 96.214844 C 163.242188 94.558594 166.152344 94.789062 167.808594 96.71875 C 169.460938 98.65625 169.238281 101.566406 167.300781 103.222656 L 135.335938 130.574219 C 134.464844 131.320312 133.398438 131.6875 132.335938 131.6875 Z M 132.335938 131.6875"/><path fill="#8C52FF" d="M 265.777344 178.132812 C 264.375 178.132812 262.988281 177.496094 262.082031 176.289062 L 234.40625 139.390625 C 232.878906 137.355469 233.289062 134.464844 235.328125 132.9375 C 237.367188 131.414062 240.261719 131.816406 241.785156 133.859375 L 269.460938 170.757812 C 270.988281 172.792969 270.578125 175.683594 268.539062 177.210938 C 267.707031 177.835938 266.734375 178.132812 265.777344 178.132812 Z M 265.777344 178.132812"/><path fill="#8C52FF" d="M 202.15625 261.597656 C 200.753906 261.597656 199.371094 260.960938 198.460938 259.753906 C 196.933594 257.71875 197.34375 254.824219 199.382812 253.300781 L 225.148438 233.976562 C 227.1875 232.449219 230.078125 232.863281 231.605469 234.898438 C 233.132812 236.933594 232.722656 239.828125 230.683594 241.351562 L 204.917969 260.675781 C 204.089844 261.292969 203.121094 261.597656 202.15625 261.597656 Z M 202.15625 261.597656"/><path fill="#8C52FF" d="M 113.558594 279.609375 L 81.273438 279.609375 C 78.726562 279.609375 76.660156 277.546875 76.660156 274.996094 C 76.660156 272.445312 78.726562 270.382812 81.273438 270.382812 L 113.558594 270.382812 C 116.105469 270.382812 118.171875 272.445312 118.171875 274.996094 C 118.171875 277.546875 116.105469 279.609375 113.558594 279.609375 Z M 113.558594 279.609375"/><g clip-path="url(#h)"><path fill="#8C52FF" d="M 99.722656 85.882812 C 89.546875 85.882812 81.273438 77.609375 81.273438 67.433594 C 81.273438 57.257812 89.546875 48.984375 99.722656 48.984375 C 109.898438 48.984375 118.171875 57.257812 118.171875 67.433594 C 118.171875 77.609375 109.898438 85.882812 99.722656 85.882812 Z M 99.722656 58.210938 C 94.632812 58.210938 90.496094 62.347656 90.496094 67.433594 C 90.496094 72.523438 94.632812 76.660156 99.722656 76.660156 C 104.808594 76.660156 108.945312 72.523438 108.945312 67.433594 C 108.945312 62.347656 104.808594 58.210938 99.722656 58.210938 Z M 99.722656 58.210938"/></g><path fill="#8C52FF" d="M 99.722656 118.171875 C 97.175781 118.171875 95.109375 116.109375 95.109375 113.558594 L 95.109375 81.273438 C 95.109375 78.722656 97.175781 76.660156 99.722656 76.660156 C 102.269531 76.660156 104.335938 78.722656 104.335938 81.273438 L 104.335938 113.558594 C 104.335938 116.109375 102.269531 118.171875 99.722656 118.171875 Z M 99.722656 118.171875"/></svg>